<?xml version="1.0" encoding="UTF-8"?>
<svg xmlns="http://www.w3.org/2000/svg" viewBox="0 0 460 360" font-family="system-ui, -apple-system, sans-serif">
  <title>Schaltplan: Spannungsteiler mit zwei Widerstaenden, Multimeter misst U2</title>

  <rect x="0" y="0" width="460" height="360" rx="8" fill="#fdfdfd" stroke="#dee2e6" stroke-width="1"/>

  <!-- Titel -->
  <text x="230" y="26" text-anchor="middle" font-size="13" font-weight="bold" fill="#333">Schaltplan: Spannungsteiler aus zwei Widerstaenden</text>

  <!-- +5V-Anschluss -->
  <line x1="170" y1="50" x2="170" y2="80" stroke="#222" stroke-width="2"/>
  <circle cx="170" cy="50" r="4" fill="#C0392B"/>
  <text x="155" y="55" text-anchor="end" font-size="13" font-weight="bold" fill="#C0392B">+5 V</text>

  <!-- R1 (Rechteck-Symbol nach DIN/IEC) -->
  <rect x="150" y="80" width="40" height="60" fill="white" stroke="#222" stroke-width="2"/>
  <text x="210" y="115" font-size="14" font-weight="bold" fill="#222">R<tspan font-size="10" baseline-shift="sub">1</tspan></text>
  <text x="210" y="132" font-size="11" fill="#666">10 k&#937;</text>

  <!-- Verbindung R1 nach Mitte -->
  <line x1="170" y1="140" x2="170" y2="175" stroke="#222" stroke-width="2"/>

  <!-- Mittelknoten -->
  <circle cx="170" cy="175" r="4" fill="#2980B9"/>
  <text x="155" y="180" text-anchor="end" font-size="13" font-weight="bold" fill="#2980B9">M (Abgriff)</text>

  <!-- Linie zum Multimeter -->
  <line x1="170" y1="175" x2="310" y2="175" stroke="#2980B9" stroke-width="2"/>
  <line x1="310" y1="175" x2="310" y2="200" stroke="#2980B9" stroke-width="2"/>

  <!-- Multimeter (V) -->
  <circle cx="310" cy="225" r="25" fill="white" stroke="#222" stroke-width="2"/>
  <text x="310" y="231" text-anchor="middle" font-size="20" font-weight="bold" fill="#222">V</text>
  <text x="310" y="298" text-anchor="middle" font-size="12" fill="#222">Multimeter</text>
  <text x="310" y="313" text-anchor="middle" font-size="11" fill="#666">misst U<tspan font-size="9" baseline-shift="sub">2</tspan></text>

  <!-- Linie Multimeter zu GND -->
  <line x1="310" y1="250" x2="310" y2="275" stroke="#222" stroke-width="2"/>
  <line x1="310" y1="275" x2="170" y2="275" stroke="#222" stroke-width="2"/>

  <!-- Verbindung Mitte nach R2 -->
  <line x1="170" y1="175" x2="170" y2="210" stroke="#222" stroke-width="2"/>

  <!-- R2 -->
  <rect x="150" y="210" width="40" height="60" fill="white" stroke="#222" stroke-width="2"/>
  <text x="210" y="245" font-size="14" font-weight="bold" fill="#222">R<tspan font-size="10" baseline-shift="sub">2</tspan></text>
  <text x="210" y="262" font-size="11" fill="#666">10 k&#937;</text>

  <!-- Verbindung R2 zu GND -->
  <line x1="170" y1="270" x2="170" y2="295" stroke="#222" stroke-width="2"/>

  <!-- GND-Symbol -->
  <line x1="150" y1="295" x2="190" y2="295" stroke="#222" stroke-width="2.5"/>
  <line x1="156" y1="302" x2="184" y2="302" stroke="#222" stroke-width="2"/>
  <line x1="162" y1="309" x2="178" y2="309" stroke="#222" stroke-width="2"/>
  <text x="125" y="300" text-anchor="end" font-size="13" font-weight="bold" fill="#222">GND</text>

  <!-- Uges-Markierung -->
  <line x1="80" y1="80" x2="80" y2="295" stroke="#888" stroke-width="1"/>
  <line x1="75" y1="80" x2="85" y2="80" stroke="#888" stroke-width="1"/>
  <line x1="75" y1="295" x2="85" y2="295" stroke="#888" stroke-width="1"/>
  <text x="50" y="190" font-size="13" font-weight="bold" fill="#888">U<tspan font-size="10" baseline-shift="sub">ges</tspan></text>
  <text x="50" y="215" font-size="11" fill="#888">= 5 V</text>

  <!-- Hinweis-Text rechts unten -->
  <text x="380" y="345" text-anchor="end" font-size="10" fill="#888" font-style="italic">U<tspan font-size="7" baseline-shift="sub">2</tspan> = U<tspan font-size="7" baseline-shift="sub">ges</tspan> &#183; R<tspan font-size="7" baseline-shift="sub">2</tspan> / (R<tspan font-size="7" baseline-shift="sub">1</tspan> + R<tspan font-size="7" baseline-shift="sub">2</tspan>)</text>
</svg>
