<?xml version="1.0" encoding="UTF-8"?>
<svg xmlns="http://www.w3.org/2000/svg" viewBox="0 0 520 360" font-family="system-ui, -apple-system, sans-serif">
  <title>Schaltplan: Servomotor an Arduino-Pin 9 (mit 5V und GND)</title>

  <rect x="0" y="0" width="520" height="360" rx="8" fill="#fdfdfd" stroke="#dee2e6" stroke-width="1"/>

  <!-- Titel -->
  <text x="260" y="26" text-anchor="middle" font-size="13" font-weight="bold" fill="#333">Schaltplan: Servomotor an Pin 9</text>

  <!-- ===================== ARDUINO-PIN-BLOCK (links) ===================== -->
  <g id="arduino-pins" transform="translate(40, 60)">
    <rect x="0" y="0" width="130" height="230" rx="6" fill="#e8f4f4" stroke="#005c61" stroke-width="2"/>
    <text x="65" y="22" text-anchor="middle" font-size="12" font-weight="bold" fill="#005c61">Arduino-Pins</text>

    <!-- 5V -->
    <rect x="10" y="40" width="110" height="38" rx="3" fill="#fff" stroke="#C0392B" stroke-width="1.5"/>
    <text x="65" y="64" text-anchor="middle" font-size="15" font-weight="bold" fill="#C0392B">5V</text>
    <circle cx="130" cy="59" r="4" fill="#C0392B"/>

    <!-- GND -->
    <rect x="10" y="98" width="110" height="38" rx="3" fill="#fff" stroke="#222" stroke-width="1.5"/>
    <text x="65" y="122" text-anchor="middle" font-size="15" font-weight="bold" fill="#222">GND</text>
    <circle cx="130" cy="117" r="4" fill="#222"/>

    <!-- Pin 9 -->
    <rect x="10" y="170" width="110" height="38" rx="3" fill="#fff" stroke="#E67E22" stroke-width="1.5"/>
    <text x="65" y="190" text-anchor="middle" font-size="14" font-weight="bold" fill="#E67E22">Pin 9</text>
    <text x="65" y="204" text-anchor="middle" font-size="9" fill="#888">(digital)</text>
    <circle cx="130" cy="189" r="4" fill="#E67E22"/>
  </g>

  <!-- ===================== VERBINDUNGS-LEITUNGEN ===================== -->
  <!-- Rot: 5V -> Servo VCC -->
  <line x1="170" y1="119" x2="350" y2="119" stroke="#C0392B" stroke-width="2.5"/>
  <!-- Schwarz: GND -> Servo GND -->
  <line x1="170" y1="177" x2="350" y2="177" stroke="#222" stroke-width="2.5"/>
  <!-- Orange: Pin 9 -> Servo Signal -->
  <line x1="170" y1="249" x2="350" y2="249" stroke="#E67E22" stroke-width="2.5"/>

  <!-- ===================== SERVO-SYMBOL (rechts) ===================== -->
  <g id="servo" transform="translate(350, 90)">
    <rect x="0" y="0" width="130" height="170" rx="6" fill="#3b82f6" stroke="#1e40af" stroke-width="2"/>
    <text x="65" y="78" text-anchor="middle" font-size="16" font-weight="bold" fill="#fff">SERVO</text>
    <text x="65" y="96" text-anchor="middle" font-size="12" fill="#dbeafe">SG90</text>

    <!-- Pin-Anschlusspunkte links am Servo -->
    <!-- VCC (rot) - bei y=29 (= absolute y=119) -->
    <circle cx="0" cy="29" r="4" fill="#C0392B"/>
    <text x="10" y="33" font-size="11" font-weight="bold" fill="#fff">+</text>

    <!-- GND (schwarz) - bei y=87 (= absolute y=177) -->
    <circle cx="0" cy="87" r="4" fill="#222"/>
    <text x="10" y="91" font-size="13" font-weight="bold" fill="#fff">&#8722;</text>

    <!-- Signal (orange) - bei y=159 (= absolute y=249) -->
    <circle cx="0" cy="159" r="4" fill="#E67E22"/>
    <text x="10" y="163" font-size="11" font-weight="bold" fill="#fff">S</text>

    <!-- Servo-Arm (oben am Servo, vereinfacht) -->
    <rect x="50" y="-18" width="30" height="20" rx="2" fill="#fafafa" stroke="#999" stroke-width="1.5"/>
    <circle cx="65" cy="-8" r="3.5" fill="#222"/>
  </g>

  <!-- ===================== INFO-BOX unten (2-zeilig, Text passt komplett rein) ===================== -->
  <g transform="translate(40, 300)">
    <rect x="0" y="0" width="440" height="50" rx="4" fill="#fff8e1" stroke="#ffb300" stroke-width="1"/>
    <text x="14" y="20" font-size="11" fill="#5d4118"><tspan font-weight="bold">3 Verbindungen:</tspan> rot zu +5V &#183; schwarz zu GND &#183; orange zu Steuer-Pin 9</text>
    <text x="14" y="40" font-size="11" fill="#5d4118">Drehbereich: 0&#176; &#8211; 180&#176;</text>
  </g>

  <!-- Pin-Beschriftungen weiter nach links (mit Abstand zum Servo-Block) -->
  <text x="340" y="115" text-anchor="end" font-size="10" font-weight="bold" fill="#C0392B">VCC</text>
  <text x="340" y="173" text-anchor="end" font-size="10" font-weight="bold" fill="#222">GND</text>
  <text x="340" y="245" text-anchor="end" font-size="10" font-weight="bold" fill="#E67E22">Signal</text>
</svg>
