<?xml version="1.0" encoding="UTF-8"?>
<svg xmlns="http://www.w3.org/2000/svg" viewBox="0 0 560 410" font-family="system-ui, -apple-system, sans-serif">
  <title>Schaltplan: DC-Motor mit NPN-Transistor BC547, Basiswiderstand 1k und Freilaufdiode an Arduino-Pin 9</title>

  <defs>
    <marker id="npnArrow" viewBox="0 0 10 10" refX="8" refY="5" markerWidth="7" markerHeight="7" orient="auto">
      <path d="M 0 0 L 10 5 L 0 10 z" fill="#000"/>
    </marker>
  </defs>

  <rect x="0" y="0" width="560" height="410" rx="8" fill="#fdfdfd" stroke="#dee2e6" stroke-width="1"/>

  <!-- Titel -->
  <text x="280" y="22" text-anchor="middle" font-size="13" font-weight="bold" fill="#333">Schaltplan: DC-Motor mit Transistor an Pin 9</text>

  <!-- ===================== ARDUINO-PIN-BLOCK (links) ===================== -->
  <g id="arduino-pins" transform="translate(30, 50)">
    <rect x="0" y="0" width="140" height="300" rx="6" fill="#e8f4f4" stroke="#005c61" stroke-width="2"/>
    <text x="70" y="22" text-anchor="middle" font-size="12" font-weight="bold" fill="#005c61">Arduino-Pins</text>

    <!-- 5V -->
    <rect x="15" y="40" width="110" height="36" rx="3" fill="#fff" stroke="#C0392B" stroke-width="1.5"/>
    <text x="70" y="63" text-anchor="middle" font-size="15" font-weight="bold" fill="#C0392B">5V</text>
    <circle cx="140" cy="58" r="4" fill="#C0392B"/>

    <!-- Pin 9 -->
    <rect x="15" y="125" width="110" height="36" rx="3" fill="#fff" stroke="#E67E22" stroke-width="1.5"/>
    <text x="70" y="144" text-anchor="middle" font-size="14" font-weight="bold" fill="#E67E22">Pin 9</text>
    <text x="70" y="156" text-anchor="middle" font-size="9" fill="#888">(digital)</text>
    <circle cx="140" cy="143" r="4" fill="#E67E22"/>

    <!-- GND -->
    <rect x="15" y="252" width="110" height="36" rx="3" fill="#fff" stroke="#222" stroke-width="1.5"/>
    <text x="70" y="275" text-anchor="middle" font-size="15" font-weight="bold" fill="#222">GND</text>
    <circle cx="140" cy="270" r="4" fill="#222"/>
  </g>

  <!-- ===================== TOP-RAIL +5V ===================== -->
  <!-- Hauptleitung von 5V-Pin nach rechts -->
  <line x1="170" y1="108" x2="500" y2="108" stroke="#C0392B" stroke-width="2.5"/>

  <!-- Abzweigung zum Motor -->
  <line x1="310" y1="108" x2="310" y2="135" stroke="#C0392B" stroke-width="2.5"/>
  <circle cx="310" cy="108" r="3" fill="#C0392B"/>

  <!-- Abzweigung zur Diode -->
  <line x1="430" y1="108" x2="430" y2="160" stroke="#C0392B" stroke-width="2.5"/>
  <circle cx="430" cy="108" r="3" fill="#C0392B"/>

  <!-- ===================== MOTOR (Kreis mit M) ===================== -->
  <g id="motor">
    <circle cx="310" cy="180" r="26" fill="#fff" stroke="#333" stroke-width="2"/>
    <text x="310" y="187" text-anchor="middle" font-size="20" font-weight="bold" fill="#333">M</text>
    <!-- Motor-Plus-Markierung -->
    <text x="276" y="142" font-size="11" font-weight="bold" fill="#C0392B">+</text>
    <text x="276" y="225" font-size="11" font-weight="bold" fill="#222">&#8722;</text>
    <!-- Motor-Anschluss oben/unten an Schaltung -->
    <line x1="310" y1="135" x2="310" y2="154" stroke="#222" stroke-width="2"/>
    <line x1="310" y1="206" x2="310" y2="232" stroke="#222" stroke-width="2"/>
  </g>

  <!-- ===================== FREILAUFDIODE (parallel zum Motor) ===================== -->
  <!-- Cathode (Ring) zu +5V (oben), Anode zum Collector (unten) -->
  <g id="diode">
    <!-- Kathoden-Bar (oben) -->
    <line x1="415" y1="160" x2="445" y2="160" stroke="#222" stroke-width="2.5"/>
    <!-- Triangle (zeigt nach oben in Sperrichtung-Symbol) -->
    <polygon points="412,210 448,210 430,165" fill="#fff" stroke="#222" stroke-width="2"/>
    <!-- Anoden-Anschluss (unten) -->
    <line x1="430" y1="210" x2="430" y2="232" stroke="#222" stroke-width="2"/>
    <!-- Label und Ring-Hinweis -->
    <text x="460" y="155" font-size="11" font-weight="bold" fill="#C0392B">Ring</text>
    <text x="460" y="168" font-size="9" fill="#555">(Kathode)</text>
    <text x="460" y="198" font-size="11" font-weight="bold" fill="#333">1N4148</text>
  </g>

  <!-- ===================== JUNCTION MOTOR-/DIODE-UNTEN ===================== -->
  <line x1="310" y1="232" x2="430" y2="232" stroke="#222" stroke-width="2.5"/>
  <circle cx="310" cy="232" r="3" fill="#222"/>
  <circle cx="430" cy="232" r="3" fill="#222"/>

  <!-- Wire down to Collector -->
  <line x1="370" y1="232" x2="370" y2="258" stroke="#222" stroke-width="2.5"/>
  <circle cx="370" cy="232" r="3" fill="#222"/>

  <!-- ===================== TRANSISTOR BC547 (NPN-Schaltzeichen) ===================== -->
  <g id="transistor">
    <!-- Pin-Verlaengerungen ausserhalb des Symbols -->
    <line x1="370" y1="258" x2="370" y2="276" stroke="#222" stroke-width="2"/>
    <line x1="330" y1="298" x2="348" y2="298" stroke="#222" stroke-width="2"/>
    <line x1="370" y1="320" x2="370" y2="338" stroke="#222" stroke-width="2"/>

    <!-- Umhuellender Kreis (Transistor-Gehaeuse) -->
    <circle cx="370" cy="298" r="22" fill="#fff" stroke="#5d4118" stroke-width="2"/>

    <!-- Basis-Strich (vertikaler dicker Strich innen) -->
    <line x1="358" y1="284" x2="358" y2="312" stroke="#000" stroke-width="3"/>
    <!-- Basis-Anschluss (horizontal innen) -->
    <line x1="348" y1="298" x2="358" y2="298" stroke="#000" stroke-width="2"/>
    <!-- Collector-Strich innen (schraeg nach oben rechts) -->
    <line x1="358" y1="285" x2="370" y2="276" stroke="#000" stroke-width="2"/>
    <!-- Emitter-Strich innen (schraeg nach unten rechts, MIT PFEIL = NPN) -->
    <line x1="358" y1="311" x2="370" y2="320" stroke="#000" stroke-width="2" marker-end="url(#npnArrow)"/>

    <!-- Labels: C oben, B links, E unten, Bauteilbezeichnung daneben -->
    <!-- weisser Outline (paint-order), damit Buchstaben ueber dem Draht/Anschluss lesbar bleiben -->
    <text x="370" y="246" text-anchor="middle" font-size="10" font-weight="bold" fill="#C0392B" paint-order="stroke" stroke="#fff" stroke-width="3" stroke-linejoin="round">C</text>
    <text x="318" y="294" text-anchor="end" font-size="10" font-weight="bold" fill="#2980B9" paint-order="stroke" stroke="#fff" stroke-width="3" stroke-linejoin="round">B</text>
    <text x="382" y="342" font-size="10" font-weight="bold" fill="#27AE60" paint-order="stroke" stroke="#fff" stroke-width="3" stroke-linejoin="round">E</text>
    <text x="402" y="294" font-size="11" font-weight="bold" fill="#333">BC547</text>
    <text x="402" y="306" font-size="9" fill="#666">NPN</text>

    <!-- Pin-Anschluss-Punkte (Verbindungspunkte zu den umliegenden Draehten) -->
    <circle cx="370" cy="258" r="3" fill="#222"/>
    <circle cx="330" cy="298" r="3" fill="#222"/>
    <circle cx="370" cy="338" r="3" fill="#222"/>
  </g>

  <!-- ===================== BASIS-LEITUNG ===================== -->
  <!-- B-Pin -> Widerstand -> Pin 9 -->
  <line x1="330" y1="298" x2="290" y2="298" stroke="#222" stroke-width="2.5"/>

  <!-- Widerstand (Rechteck mit Zickzack) -->
  <g id="basiswiderstand" transform="translate(220, 290)">
    <rect x="0" y="0" width="70" height="16" rx="2" fill="#fff" stroke="#222" stroke-width="1.5"/>
    <text x="35" y="12" text-anchor="middle" font-size="10" font-weight="bold" fill="#333">1 k&#937;</text>
    <text x="35" y="-4" text-anchor="middle" font-size="9" fill="#666">Basiswiderstand</text>
  </g>

  <!-- Wire von linkem Widerstands-Ende zu Pin 9 (in zwei Stufen) -->
  <line x1="220" y1="298" x2="195" y2="298" stroke="#222" stroke-width="2.5"/>
  <line x1="195" y1="298" x2="195" y2="193" stroke="#222" stroke-width="2.5"/>
  <line x1="195" y1="193" x2="170" y2="193" stroke="#E67E22" stroke-width="2.5"/>

  <!-- ===================== EMITTER -> GND ===================== -->
  <line x1="370" y1="338" x2="370" y2="370" stroke="#222" stroke-width="2.5"/>
  <line x1="370" y1="370" x2="195" y2="370" stroke="#222" stroke-width="2.5"/>
  <line x1="195" y1="370" x2="195" y2="320" stroke="#222" stroke-width="2.5"/>
  <line x1="195" y1="320" x2="170" y2="320" stroke="#222" stroke-width="2.5"/>

  <!-- ===================== STROMFLUSS-PFEIL (didaktisch) ===================== -->
  <!-- Wenn Pin 9 = HIGH: Strom fliesst von +5V durch Motor durch Transistor nach GND -->
  <g opacity="0.85">
    <text x="245" y="135" font-size="10" font-weight="bold" fill="#27AE60">Strom-Pfad:</text>
    <text x="245" y="148" font-size="9" fill="#27AE60">+5V &#8594; Motor &#8594; C &#8594; E &#8594; GND</text>
  </g>

  <!-- ===================== HINWEIS-BOX ===================== -->
  <g transform="translate(30, 384)">
    <rect x="0" y="0" width="500" height="22" rx="4" fill="#fff8e1" stroke="#ffb300" stroke-width="1"/>
    <text x="10" y="15" font-size="10" fill="#5d4118"><tspan font-weight="bold">Wichtig:</tspan> Ring der Diode zu +5V &#183; Basis-Widerstand schuetzt den Arduino-Pin &#183; Emitter immer zu GND.</text>
  </g>
</svg>
