<?xml version="1.0" encoding="UTF-8"?>
<svg xmlns="http://www.w3.org/2000/svg" viewBox="0 0 720 600" width="100%" style="max-width: 720px; height: auto; font-family: 'Helvetica Neue', Arial, sans-serif;">

  <defs>
    <radialGradient id="ledGlow" cx="35%" cy="30%" r="60%">
      <stop offset="0%" stop-color="#ff8a80"/>
      <stop offset="50%" stop-color="#ef5350"/>
      <stop offset="100%" stop-color="#b71c1c"/>
    </radialGradient>
    <linearGradient id="resistorBody" x1="0" x2="1" y1="0" y2="0">
      <stop offset="0%" stop-color="#e8c79a"/>
      <stop offset="100%" stop-color="#b8915a"/>
    </linearGradient>
  </defs>

  <!-- Hintergrund -->
  <rect width="720" height="600" fill="#fdfcf6"/>

  <!-- ===================== ARDUINO UNO (oben, horizontal) ===================== -->
  <g id="arduino" transform="translate(120, 30)">
    <!-- Hauptplatine -->
    <rect x="0" y="0" width="480" height="170" rx="10" fill="#00979d" stroke="#005c61" stroke-width="2"/>

    <!-- USB-Buchse rechts (raus aus Korpus) -->
    <rect x="475" y="20" width="45" height="40" fill="#9ea7ac" stroke="#444" stroke-width="1.5"/>
    <rect x="481" y="28" width="32" height="24" fill="#555"/>

    <!-- Power-Buchse rechts unten -->
    <rect x="475" y="115" width="35" height="25" rx="3" fill="#1a1a1a"/>

    <!-- Mikrocontroller-Chip in der Mitte -->
    <rect x="190" y="65" width="100" height="50" fill="#222" stroke="#000" stroke-width="1"/>
    <circle cx="197" cy="71" r="2" fill="#fff" opacity="0.4"/>
    <text x="240" y="95" text-anchor="middle" fill="#aaa" font-size="10" font-family="monospace">ATmega328P</text>

    <!-- Reset-Knopf -->
    <rect x="395" y="30" width="22" height="22" rx="2" fill="#bcbcbc" stroke="#777"/>
    <circle cx="406" cy="41" r="5" fill="#888"/>

    <!-- LED-Indikatoren -->
    <circle cx="345" cy="50" r="3.5" fill="#ff9800"/>
    <circle cx="358" cy="50" r="3.5" fill="#ff9800"/>

    <!-- Beschriftung -->
    <text x="240" y="145" text-anchor="middle" fill="#fff" font-weight="bold" font-size="16" letter-spacing="2">ARDUINO UNO</text>

    <!-- ==== Obere Pin-Leiste (Power + Analog) — dekorativ ==== -->
    <rect x="20" y="-8" width="440" height="13" fill="#1a1a1a"/>
    <g fill="#3a3a3a">
      <rect x="30" y="-6" width="9" height="10"/>
      <rect x="62" y="-6" width="9" height="10"/>
      <rect x="94" y="-6" width="9" height="10"/>
      <rect x="126" y="-6" width="9" height="10"/>
      <rect x="158" y="-6" width="9" height="10"/>
      <rect x="190" y="-6" width="9" height="10"/>
      <rect x="222" y="-6" width="9" height="10"/>
      <rect x="254" y="-6" width="9" height="10"/>
      <rect x="286" y="-6" width="9" height="10"/>
      <rect x="318" y="-6" width="9" height="10"/>
      <rect x="350" y="-6" width="9" height="10"/>
      <rect x="382" y="-6" width="9" height="10"/>
      <rect x="414" y="-6" width="9" height="10"/>
      <rect x="446" y="-6" width="9" height="10"/>
    </g>
    <text x="240" y="-13" text-anchor="middle" fill="#888" font-size="9">Power + Analog (A0…A5)</text>

    <!-- ==== Untere Pin-Leiste (Digital + AREF + GND) — UNSERE PINS ==== -->
    <rect x="20" y="165" width="440" height="13" fill="#1a1a1a"/>

    <!-- 16 Pin-Slots: AREF, GND, 13, 12, ..., 0 (von links nach rechts) -->
    <!-- Start x=30, Step=27 -->
    <g fill="#3a3a3a">
      <rect x="30" y="167" width="9" height="10"/>      <!-- AREF (Pos 1) -->
    </g>
    <!-- GND-Pin (Position 2, GELB) -->
    <rect x="57" y="167" width="9" height="10" fill="#ffeb3b" stroke="#e6a700" stroke-width="1"/>
    <g fill="#3a3a3a">
      <rect x="84" y="167" width="9" height="10"/>      <!-- Pin 13 -->
      <rect x="111" y="167" width="9" height="10"/>     <!-- Pin 12 -->
      <rect x="138" y="167" width="9" height="10"/>     <!-- Pin 11 -->
      <rect x="165" y="167" width="9" height="10"/>     <!-- Pin 10 -->
      <rect x="192" y="167" width="9" height="10"/>     <!-- Pin 9 -->
    </g>
    <!-- Pin 8 (Position 8, GELB) -->
    <rect x="219" y="167" width="9" height="10" fill="#ffeb3b" stroke="#e6a700" stroke-width="1"/>
    <g fill="#3a3a3a">
      <rect x="246" y="167" width="9" height="10"/>     <!-- Pin 7 -->
      <rect x="273" y="167" width="9" height="10"/>     <!-- Pin 6 -->
      <rect x="300" y="167" width="9" height="10"/>     <!-- Pin 5 -->
      <rect x="327" y="167" width="9" height="10"/>     <!-- Pin 4 -->
      <rect x="354" y="167" width="9" height="10"/>     <!-- Pin 3 -->
      <rect x="381" y="167" width="9" height="10"/>     <!-- Pin 2 -->
      <rect x="408" y="167" width="9" height="10"/>     <!-- Pin 1 -->
      <rect x="435" y="167" width="9" height="10"/>     <!-- Pin 0 -->
    </g>

    <!-- Beschriftungen für markierte Pins -->
    <text x="61" y="192" text-anchor="middle" fill="#222" font-size="11" font-weight="bold">GND</text>
    <line x1="61" y1="178" x2="61" y2="184" stroke="#e6a700" stroke-width="1.5"/>

    <text x="223" y="192" text-anchor="middle" fill="#222" font-size="11" font-weight="bold">Pin 8</text>
    <line x1="223" y1="178" x2="223" y2="184" stroke="#e6a700" stroke-width="1.5"/>

    <!-- Orientierungs-Beschriftungen -->
    <text x="88" y="158" text-anchor="middle" fill="#fff" font-size="8" opacity="0.65">13</text>
    <text x="439" y="158" text-anchor="middle" fill="#fff" font-size="8" opacity="0.65">0</text>
  </g>

  <!-- ===================== BREADBOARD (unten, horizontal) ===================== -->
  <g id="breadboard" transform="translate(40, 240)">
    <!-- Korpus -->
    <rect x="0" y="0" width="640" height="310" rx="6" fill="#f6f5ef" stroke="#bbb" stroke-width="2"/>

    <!-- Power-Schiene oben (+/-) -->
    <line x1="20" y1="20" x2="620" y2="20" stroke="#d32f2f" stroke-width="1" opacity="0.55"/>
    <text x="10" y="25" font-size="14" fill="#d32f2f" font-weight="bold" opacity="0.55">+</text>
    <line x1="20" y1="38" x2="620" y2="38" stroke="#1976d2" stroke-width="1" opacity="0.55"/>
    <text x="10" y="43" font-size="14" fill="#1976d2" font-weight="bold" opacity="0.55">−</text>

    <!-- Power-Schiene unten (+/-) -->
    <line x1="20" y1="272" x2="620" y2="272" stroke="#d32f2f" stroke-width="1" opacity="0.55"/>
    <text x="10" y="277" font-size="14" fill="#d32f2f" font-weight="bold" opacity="0.55">+</text>
    <line x1="20" y1="290" x2="620" y2="290" stroke="#1976d2" stroke-width="1" opacity="0.55"/>
    <text x="10" y="295" font-size="14" fill="#1976d2" font-weight="bold" opacity="0.55">−</text>

    <!-- Mittellücke (heller Streifen) -->
    <rect x="20" y="148" width="600" height="20" fill="#ebe9dd"/>

    <!-- Spalten-Beschriftung links: f-j (oben), a-e (unten) -->
    <g font-size="10" fill="#777" font-family="monospace">
      <text x="22" y="62" text-anchor="end">f</text>
      <text x="22" y="82" text-anchor="end">g</text>
      <text x="22" y="102" text-anchor="end">h</text>
      <text x="22" y="122" text-anchor="end">i</text>
      <text x="22" y="142" text-anchor="end">j</text>
      <text x="22" y="182" text-anchor="end">a</text>
      <text x="22" y="202" text-anchor="end">b</text>
      <text x="22" y="222" text-anchor="end">c</text>
      <text x="22" y="242" text-anchor="end">d</text>
      <text x="22" y="262" text-anchor="end">e</text>
    </g>

    <!-- Reihen-Beschriftung (Reihen 5, 10, 15, 20, 25, 30 oben am Breadboard) -->
    <g font-size="9" fill="#777" font-family="monospace">
      <text x="120" y="54" text-anchor="middle">5</text>
      <text x="220" y="54" text-anchor="middle">10</text>
      <text x="320" y="54" text-anchor="middle">15</text>
      <text x="420" y="54" text-anchor="middle">20</text>
      <text x="520" y="54" text-anchor="middle">25</text>
      <text x="620" y="54" text-anchor="middle">30</text>
    </g>

    <!-- Hilfs-Markierung der wichtigen Reihen 12 und 15 (zarte gelbe Spalten) -->
    <rect x="246" y="54" width="14" height="216" fill="#fff9c4" opacity="0.45" rx="2"/>
    <rect x="306" y="54" width="14" height="216" fill="#fff9c4" opacity="0.45" rx="2"/>

    <!-- Lochraster: 30 Reihen × 10 Spalten -->
    <!-- Reihen x: 40, 60, 80, ..., 620 (x_start=40, x_step=20) -->
    <!-- Spalten y (f, g, h, i, j): 62, 82, 102, 122, 142 -->
    <!-- Spalten y (a, b, c, d, e): 178, 198, 218, 238, 258 -->
    <g fill="#cfcdc4">
      <!-- Pro Reihe: 10 Löcher (5 oben + 5 unten) -->
      <!-- Generiere mit Hand: x = 40, 60, 80, ... 620 -->
      <!-- Reihe 1 (x=40) -->
      <circle cx="40" cy="62" r="2.2"/><circle cx="40" cy="82" r="2.2"/><circle cx="40" cy="102" r="2.2"/><circle cx="40" cy="122" r="2.2"/><circle cx="40" cy="142" r="2.2"/>
      <circle cx="40" cy="178" r="2.2"/><circle cx="40" cy="198" r="2.2"/><circle cx="40" cy="218" r="2.2"/><circle cx="40" cy="238" r="2.2"/><circle cx="40" cy="258" r="2.2"/>
      <circle cx="60" cy="62" r="2.2"/><circle cx="60" cy="82" r="2.2"/><circle cx="60" cy="102" r="2.2"/><circle cx="60" cy="122" r="2.2"/><circle cx="60" cy="142" r="2.2"/>
      <circle cx="60" cy="178" r="2.2"/><circle cx="60" cy="198" r="2.2"/><circle cx="60" cy="218" r="2.2"/><circle cx="60" cy="238" r="2.2"/><circle cx="60" cy="258" r="2.2"/>
      <circle cx="80" cy="62" r="2.2"/><circle cx="80" cy="82" r="2.2"/><circle cx="80" cy="102" r="2.2"/><circle cx="80" cy="122" r="2.2"/><circle cx="80" cy="142" r="2.2"/>
      <circle cx="80" cy="178" r="2.2"/><circle cx="80" cy="198" r="2.2"/><circle cx="80" cy="218" r="2.2"/><circle cx="80" cy="238" r="2.2"/><circle cx="80" cy="258" r="2.2"/>
      <circle cx="100" cy="62" r="2.2"/><circle cx="100" cy="82" r="2.2"/><circle cx="100" cy="102" r="2.2"/><circle cx="100" cy="122" r="2.2"/><circle cx="100" cy="142" r="2.2"/>
      <circle cx="100" cy="178" r="2.2"/><circle cx="100" cy="198" r="2.2"/><circle cx="100" cy="218" r="2.2"/><circle cx="100" cy="238" r="2.2"/><circle cx="100" cy="258" r="2.2"/>
      <circle cx="120" cy="62" r="2.2"/><circle cx="120" cy="82" r="2.2"/><circle cx="120" cy="102" r="2.2"/><circle cx="120" cy="122" r="2.2"/><circle cx="120" cy="142" r="2.2"/>
      <circle cx="120" cy="178" r="2.2"/><circle cx="120" cy="198" r="2.2"/><circle cx="120" cy="218" r="2.2"/><circle cx="120" cy="238" r="2.2"/><circle cx="120" cy="258" r="2.2"/>
      <circle cx="140" cy="62" r="2.2"/><circle cx="140" cy="82" r="2.2"/><circle cx="140" cy="102" r="2.2"/><circle cx="140" cy="122" r="2.2"/><circle cx="140" cy="142" r="2.2"/>
      <circle cx="140" cy="178" r="2.2"/><circle cx="140" cy="198" r="2.2"/><circle cx="140" cy="218" r="2.2"/><circle cx="140" cy="238" r="2.2"/><circle cx="140" cy="258" r="2.2"/>
      <circle cx="160" cy="62" r="2.2"/><circle cx="160" cy="82" r="2.2"/><circle cx="160" cy="102" r="2.2"/><circle cx="160" cy="122" r="2.2"/><circle cx="160" cy="142" r="2.2"/>
      <circle cx="160" cy="178" r="2.2"/><circle cx="160" cy="198" r="2.2"/><circle cx="160" cy="218" r="2.2"/><circle cx="160" cy="238" r="2.2"/><circle cx="160" cy="258" r="2.2"/>
      <circle cx="180" cy="62" r="2.2"/><circle cx="180" cy="82" r="2.2"/><circle cx="180" cy="102" r="2.2"/><circle cx="180" cy="122" r="2.2"/><circle cx="180" cy="142" r="2.2"/>
      <circle cx="180" cy="178" r="2.2"/><circle cx="180" cy="198" r="2.2"/><circle cx="180" cy="218" r="2.2"/><circle cx="180" cy="238" r="2.2"/><circle cx="180" cy="258" r="2.2"/>
      <circle cx="200" cy="62" r="2.2"/><circle cx="200" cy="82" r="2.2"/><circle cx="200" cy="102" r="2.2"/><circle cx="200" cy="122" r="2.2"/><circle cx="200" cy="142" r="2.2"/>
      <circle cx="200" cy="178" r="2.2"/><circle cx="200" cy="198" r="2.2"/><circle cx="200" cy="218" r="2.2"/><circle cx="200" cy="238" r="2.2"/><circle cx="200" cy="258" r="2.2"/>
      <circle cx="220" cy="62" r="2.2"/><circle cx="220" cy="82" r="2.2"/><circle cx="220" cy="102" r="2.2"/><circle cx="220" cy="122" r="2.2"/><circle cx="220" cy="142" r="2.2"/>
      <circle cx="220" cy="178" r="2.2"/><circle cx="220" cy="198" r="2.2"/><circle cx="220" cy="218" r="2.2"/><circle cx="220" cy="238" r="2.2"/><circle cx="220" cy="258" r="2.2"/>
      <circle cx="240" cy="62" r="2.2"/><circle cx="240" cy="82" r="2.2"/><circle cx="240" cy="102" r="2.2"/><circle cx="240" cy="122" r="2.2"/><circle cx="240" cy="142" r="2.2"/>
      <circle cx="240" cy="178" r="2.2"/><circle cx="240" cy="198" r="2.2"/><circle cx="240" cy="218" r="2.2"/><circle cx="240" cy="238" r="2.2"/><circle cx="240" cy="258" r="2.2"/>
      <circle cx="260" cy="62" r="2.2"/><circle cx="260" cy="82" r="2.2"/><circle cx="260" cy="102" r="2.2"/><circle cx="260" cy="122" r="2.2"/><circle cx="260" cy="142" r="2.2"/>
      <circle cx="260" cy="178" r="2.2"/><circle cx="260" cy="198" r="2.2"/><circle cx="260" cy="218" r="2.2"/><circle cx="260" cy="238" r="2.2"/><circle cx="260" cy="258" r="2.2"/>
      <circle cx="280" cy="62" r="2.2"/><circle cx="280" cy="82" r="2.2"/><circle cx="280" cy="102" r="2.2"/><circle cx="280" cy="122" r="2.2"/><circle cx="280" cy="142" r="2.2"/>
      <circle cx="280" cy="178" r="2.2"/><circle cx="280" cy="198" r="2.2"/><circle cx="280" cy="218" r="2.2"/><circle cx="280" cy="238" r="2.2"/><circle cx="280" cy="258" r="2.2"/>
      <circle cx="300" cy="62" r="2.2"/><circle cx="300" cy="82" r="2.2"/><circle cx="300" cy="102" r="2.2"/><circle cx="300" cy="122" r="2.2"/><circle cx="300" cy="142" r="2.2"/>
      <circle cx="300" cy="178" r="2.2"/><circle cx="300" cy="198" r="2.2"/><circle cx="300" cy="218" r="2.2"/><circle cx="300" cy="238" r="2.2"/><circle cx="300" cy="258" r="2.2"/>
      <circle cx="320" cy="62" r="2.2"/><circle cx="320" cy="82" r="2.2"/><circle cx="320" cy="102" r="2.2"/><circle cx="320" cy="122" r="2.2"/><circle cx="320" cy="142" r="2.2"/>
      <circle cx="320" cy="178" r="2.2"/><circle cx="320" cy="198" r="2.2"/><circle cx="320" cy="218" r="2.2"/><circle cx="320" cy="238" r="2.2"/><circle cx="320" cy="258" r="2.2"/>
      <circle cx="340" cy="62" r="2.2"/><circle cx="340" cy="82" r="2.2"/><circle cx="340" cy="102" r="2.2"/><circle cx="340" cy="122" r="2.2"/><circle cx="340" cy="142" r="2.2"/>
      <circle cx="340" cy="178" r="2.2"/><circle cx="340" cy="198" r="2.2"/><circle cx="340" cy="218" r="2.2"/><circle cx="340" cy="238" r="2.2"/><circle cx="340" cy="258" r="2.2"/>
      <circle cx="360" cy="62" r="2.2"/><circle cx="360" cy="82" r="2.2"/><circle cx="360" cy="102" r="2.2"/><circle cx="360" cy="122" r="2.2"/><circle cx="360" cy="142" r="2.2"/>
      <circle cx="360" cy="178" r="2.2"/><circle cx="360" cy="198" r="2.2"/><circle cx="360" cy="218" r="2.2"/><circle cx="360" cy="238" r="2.2"/><circle cx="360" cy="258" r="2.2"/>
      <circle cx="380" cy="62" r="2.2"/><circle cx="380" cy="82" r="2.2"/><circle cx="380" cy="102" r="2.2"/><circle cx="380" cy="122" r="2.2"/><circle cx="380" cy="142" r="2.2"/>
      <circle cx="380" cy="178" r="2.2"/><circle cx="380" cy="198" r="2.2"/><circle cx="380" cy="218" r="2.2"/><circle cx="380" cy="238" r="2.2"/><circle cx="380" cy="258" r="2.2"/>
      <circle cx="400" cy="62" r="2.2"/><circle cx="400" cy="82" r="2.2"/><circle cx="400" cy="102" r="2.2"/><circle cx="400" cy="122" r="2.2"/><circle cx="400" cy="142" r="2.2"/>
      <circle cx="400" cy="178" r="2.2"/><circle cx="400" cy="198" r="2.2"/><circle cx="400" cy="218" r="2.2"/><circle cx="400" cy="238" r="2.2"/><circle cx="400" cy="258" r="2.2"/>
      <circle cx="420" cy="62" r="2.2"/><circle cx="420" cy="82" r="2.2"/><circle cx="420" cy="102" r="2.2"/><circle cx="420" cy="122" r="2.2"/><circle cx="420" cy="142" r="2.2"/>
      <circle cx="420" cy="178" r="2.2"/><circle cx="420" cy="198" r="2.2"/><circle cx="420" cy="218" r="2.2"/><circle cx="420" cy="238" r="2.2"/><circle cx="420" cy="258" r="2.2"/>
      <circle cx="440" cy="62" r="2.2"/><circle cx="440" cy="82" r="2.2"/><circle cx="440" cy="102" r="2.2"/><circle cx="440" cy="122" r="2.2"/><circle cx="440" cy="142" r="2.2"/>
      <circle cx="440" cy="178" r="2.2"/><circle cx="440" cy="198" r="2.2"/><circle cx="440" cy="218" r="2.2"/><circle cx="440" cy="238" r="2.2"/><circle cx="440" cy="258" r="2.2"/>
      <circle cx="460" cy="62" r="2.2"/><circle cx="460" cy="82" r="2.2"/><circle cx="460" cy="102" r="2.2"/><circle cx="460" cy="122" r="2.2"/><circle cx="460" cy="142" r="2.2"/>
      <circle cx="460" cy="178" r="2.2"/><circle cx="460" cy="198" r="2.2"/><circle cx="460" cy="218" r="2.2"/><circle cx="460" cy="238" r="2.2"/><circle cx="460" cy="258" r="2.2"/>
      <circle cx="480" cy="62" r="2.2"/><circle cx="480" cy="82" r="2.2"/><circle cx="480" cy="102" r="2.2"/><circle cx="480" cy="122" r="2.2"/><circle cx="480" cy="142" r="2.2"/>
      <circle cx="480" cy="178" r="2.2"/><circle cx="480" cy="198" r="2.2"/><circle cx="480" cy="218" r="2.2"/><circle cx="480" cy="238" r="2.2"/><circle cx="480" cy="258" r="2.2"/>
      <circle cx="500" cy="62" r="2.2"/><circle cx="500" cy="82" r="2.2"/><circle cx="500" cy="102" r="2.2"/><circle cx="500" cy="122" r="2.2"/><circle cx="500" cy="142" r="2.2"/>
      <circle cx="500" cy="178" r="2.2"/><circle cx="500" cy="198" r="2.2"/><circle cx="500" cy="218" r="2.2"/><circle cx="500" cy="238" r="2.2"/><circle cx="500" cy="258" r="2.2"/>
      <circle cx="520" cy="62" r="2.2"/><circle cx="520" cy="82" r="2.2"/><circle cx="520" cy="102" r="2.2"/><circle cx="520" cy="122" r="2.2"/><circle cx="520" cy="142" r="2.2"/>
      <circle cx="520" cy="178" r="2.2"/><circle cx="520" cy="198" r="2.2"/><circle cx="520" cy="218" r="2.2"/><circle cx="520" cy="238" r="2.2"/><circle cx="520" cy="258" r="2.2"/>
      <circle cx="540" cy="62" r="2.2"/><circle cx="540" cy="82" r="2.2"/><circle cx="540" cy="102" r="2.2"/><circle cx="540" cy="122" r="2.2"/><circle cx="540" cy="142" r="2.2"/>
      <circle cx="540" cy="178" r="2.2"/><circle cx="540" cy="198" r="2.2"/><circle cx="540" cy="218" r="2.2"/><circle cx="540" cy="238" r="2.2"/><circle cx="540" cy="258" r="2.2"/>
      <circle cx="560" cy="62" r="2.2"/><circle cx="560" cy="82" r="2.2"/><circle cx="560" cy="102" r="2.2"/><circle cx="560" cy="122" r="2.2"/><circle cx="560" cy="142" r="2.2"/>
      <circle cx="560" cy="178" r="2.2"/><circle cx="560" cy="198" r="2.2"/><circle cx="560" cy="218" r="2.2"/><circle cx="560" cy="238" r="2.2"/><circle cx="560" cy="258" r="2.2"/>
      <circle cx="580" cy="62" r="2.2"/><circle cx="580" cy="82" r="2.2"/><circle cx="580" cy="102" r="2.2"/><circle cx="580" cy="122" r="2.2"/><circle cx="580" cy="142" r="2.2"/>
      <circle cx="580" cy="178" r="2.2"/><circle cx="580" cy="198" r="2.2"/><circle cx="580" cy="218" r="2.2"/><circle cx="580" cy="238" r="2.2"/><circle cx="580" cy="258" r="2.2"/>
      <circle cx="600" cy="62" r="2.2"/><circle cx="600" cy="82" r="2.2"/><circle cx="600" cy="102" r="2.2"/><circle cx="600" cy="122" r="2.2"/><circle cx="600" cy="142" r="2.2"/>
      <circle cx="600" cy="178" r="2.2"/><circle cx="600" cy="198" r="2.2"/><circle cx="600" cy="218" r="2.2"/><circle cx="600" cy="238" r="2.2"/><circle cx="600" cy="258" r="2.2"/>
      <circle cx="620" cy="62" r="2.2"/><circle cx="620" cy="82" r="2.2"/><circle cx="620" cy="102" r="2.2"/><circle cx="620" cy="122" r="2.2"/><circle cx="620" cy="142" r="2.2"/>
      <circle cx="620" cy="178" r="2.2"/><circle cx="620" cy="198" r="2.2"/><circle cx="620" cy="218" r="2.2"/><circle cx="620" cy="238" r="2.2"/><circle cx="620" cy="258" r="2.2"/>
    </g>
  </g>

  <!-- ===================== WIDERSTAND 220 Ω (horizontal in Spalte g, Reihen 12→15) ===================== -->
  <!-- g12 absolut: x = 40 + 30 + 11*20 = 290, y = 240 + 82 = 322 -->
  <!-- g15 absolut: x = 40 + 30 + 14*20 = 350, y = 322 -->
  <g id="widerstand">
    <!-- Beinchen links (in g12) -->
    <line x1="290" y1="322" x2="298" y2="322" stroke="#999" stroke-width="2"/>
    <!-- Beinchen rechts (in g15) -->
    <line x1="342" y1="322" x2="350" y2="322" stroke="#999" stroke-width="2"/>
    <!-- Korpus horizontal -->
    <rect x="298" y="313" width="44" height="18" rx="8" fill="url(#resistorBody)" stroke="#7a5b30" stroke-width="0.8"/>
    <!-- Farbringe (rot, rot, braun, gold = 220 Ω) -->
    <rect x="303" y="313" width="3" height="18" fill="#c0392b"/>
    <rect x="310" y="313" width="3" height="18" fill="#c0392b"/>
    <rect x="317" y="313" width="3" height="18" fill="#5d3920"/>
    <rect x="333" y="313" width="3" height="18" fill="#daa520"/>
    <!-- Beschriftung über dem Widerstand -->
    <text x="320" y="306" text-anchor="middle" font-size="11" fill="#555" font-weight="bold">220 Ω</text>
  </g>

  <!-- ===================== LED (rot, senkrecht über die Mittellücke, Reihe 12) ===================== -->
  <!-- f12 absolut: x=290, y=240+62=302 -->
  <!-- e12 absolut: x=290, y=240+258=498 -->
  <!-- LED-Kuppe oberhalb der Mittellücke, Beinchen gehen über die Lücke -->
  <g id="led">
    <!-- Beinchen Anode (lang, oben, in f12, also y=302 — geht durch die obere Hälfte des Breadboards) -->
    <line x1="287" y1="302" x2="287" y2="395" stroke="#a0a0a0" stroke-width="2.2"/>
    <!-- Beinchen Kathode (kurz, unten, in e12, y=498) -->
    <line x1="293" y1="498" x2="293" y2="412" stroke="#a0a0a0" stroke-width="2.2"/>
    <!-- LED-Kuppe in der Mittellücke (y zentriert auf 400) -->
    <circle cx="290" cy="403" r="13" fill="url(#ledGlow)" stroke="#7f1d1d" stroke-width="1.5"/>
    <ellipse cx="286" cy="399" rx="3.5" ry="5" fill="#ffe0db" opacity="0.75"/>

    <!-- Beschriftungen rechts neben der LED -->
    <text x="312" y="394" font-size="11" fill="#c0392b" font-weight="bold">LED rot</text>
    <text x="312" y="408" font-size="10" fill="#1976d2" font-weight="bold">+ Anode (lang) → f12</text>
    <text x="312" y="421" font-size="10" fill="#555" font-weight="bold">− Kathode (kurz) → e12</text>
  </g>

  <!-- ===================== KABEL ===================== -->
  <!-- ROTES KABEL: Pin 8 → h15 (Reihe 15 oben, im Knoten mit Widerstand-Bein-2) -->
  <!-- Pin 8 absolut: x = 120+223 = 343, y = 30+178 = 208 -->
  <!-- h15 absolut: x = 40+30+14*20 = 350, y = 240+102 = 342 -->
  <path d="M 343,208 L 350,342"
        stroke="#d32f2f" stroke-width="3.8" fill="none" stroke-linecap="round"/>
  <circle cx="343" cy="208" r="4.5" fill="#d32f2f"/>
  <circle cx="350" cy="342" r="4.5" fill="#d32f2f"/>

  <!-- SCHWARZES KABEL: GND → d12 (Reihe 12 unten, im Knoten mit LED-Kathode) -->
  <!-- GND absolut: x = 120+61 = 181, y = 208 -->
  <!-- d12 absolut: x = 40+30+11*20 = 290, y = 240+238 = 478 -->
  <path d="M 181,208 C 181,300 220,400 290,478"
        stroke="#222" stroke-width="3.8" fill="none" stroke-linecap="round"/>
  <circle cx="181" cy="208" r="4.5" fill="#222"/>
  <circle cx="290" cy="478" r="4.5" fill="#222"/>

  <!-- ===================== HINWEIS-BESCHRIFTUNGEN ===================== -->
  <g font-size="10" fill="#444" font-family="sans-serif">
    <!-- Pin-8-Kabel-Hinweis -->
    <text x="360" y="345" font-weight="bold" fill="#c0392b">← Pin-8-Kabel in h15</text>
    <!-- GND-Kabel-Hinweis -->
    <text x="300" y="471" font-weight="bold">← GND-Kabel in d12</text>
    <!-- Widerstand-Hinweis -->
    <text x="248" y="296" text-anchor="end" font-weight="bold">220 Ω: g12 → g15 →</text>
  </g>

  <!-- ===================== LEGENDE ===================== -->
  <g id="legende" transform="translate(40, 545)">
    <rect x="0" y="0" width="640" height="50" rx="6" fill="white" stroke="#ccc"/>
    <text x="15" y="20" font-size="13" font-weight="bold" fill="#333">Stromfluss</text>

    <line x1="15" y1="38" x2="40" y2="38" stroke="#d32f2f" stroke-width="3" stroke-linecap="round"/>
    <text x="48" y="42" font-size="11" fill="#333">Pin 8  →  220 Ω Widerstand  →  LED⁺ (Anode)</text>

    <line x1="340" y1="38" x2="365" y2="38" stroke="#222" stroke-width="3" stroke-linecap="round"/>
    <text x="373" y="42" font-size="11" fill="#333">LED⁻ (Kathode)  →  GND</text>
  </g>

</svg>
